<mxfile host="app.diagrams.net" modified="2024-01-18T01:01:36.191Z" agent="Mozilla/5.0 (Windows NT 10.0; Win64; x64) AppleWebKit/537.36 (KHTML, like Gecko) Chrome/120.0.0.0 Safari/537.36" version="22.1.21" etag="CqnMY0sd3fcDrW7fyku5" type="github">
  <diagram name="페이지-1" id="lm_fvit_f8Z3brg9ikBG">
    <mxGraphModel>
      <root>
        <mxCell id="0" />
        <mxCell id="1" parent="0" />
      </root>
    </mxGraphModel>
  </diagram>
</mxfile>
